<svg width="256" height="256" viewBox="0 0 256 256" fill="none" xmlns="http://www.w3.org/2000/svg">
<g clip-path="url(#clip0_8_15)">
<circle cx="128" cy="128" r="128" fill="#3AA2F7"/>
<path d="M233.143 108.19C246.959 106.565 245.672 89.2275 243.302 80.7619C243.302 79.9153 243.942 76.4825 246.349 80.7619C250.921 88.8889 257.016 123.936 254.476 123.936C251.936 123.936 243.302 129.524 246.349 141.206C249.397 152.889 229.079 184.889 222.476 187.429C215.873 189.968 212.317 202.667 219.429 202.667C226.54 202.667 222.206 226.397 172.698 247.365C129.524 265.651 79.2381 245.841 72.127 241.778C65.7057 238.108 89.9048 235.175 91.4286 233.143C97.122 225.552 119.365 249.397 131.556 247.365C143.746 245.333 169.651 219.936 174.222 211.302C178.794 202.667 140.19 199.619 125.46 187.429C110.73 175.238 118.857 168.127 131.556 151.365C144.254 134.603 215.873 110.222 233.143 108.19Z" fill="#90C964"/>
<path d="M44.6984 34.5397C45.1048 27.2254 69.7566 14.3915 81.2698 9.6508C101.079 4.57144 75.6825 14.2222 70.0952 22.8571C64.5079 31.4921 63.4921 44.1905 92.9524 25.3968C122.413 6.60318 165.587 10.6667 185.397 15.746C204.269 20.585 218.07 39.2541 219.773 41.0101C219.91 41.0969 219.966 41.1429 219.936 41.1429C219.912 41.1429 219.858 41.0974 219.773 41.0101C217.594 39.6268 195.074 27.8766 179.302 26.9206C162.54 25.9048 143.746 42.6667 143.746 49.2698C143.746 55.873 157.46 62.9841 162.032 70.0952C166.603 77.2064 157.968 87.3651 146.794 80.7619C135.619 74.1587 126.984 76.6984 115.81 76.6984C104.635 76.6984 90.9206 94.9841 86.3492 97.0159C81.7778 99.0476 86.3492 122.921 86.3492 131.048C86.3492 139.175 71.619 151.365 68.0635 155.429C64.5079 159.492 69.5873 171.175 59.9365 171.175C50.2857 171.175 44.6984 157.968 37.5873 148.825C30.4762 139.683 31.4921 127.492 33.0159 116.317C34.5397 105.143 59.9365 93.4603 63.4921 87.3651C67.0476 81.2698 63.4921 75.6825 59.9365 70.0952C56.381 64.5079 58.9206 42.1587 54.8571 42.6667C50.7937 43.1746 44.1905 43.6825 44.6984 34.5397Z" fill="#90C964"/>
<g clip-path="url(#clip1_8_15)">
<ellipse cx="197.587" cy="111.238" rx="12.6984" ry="12.6984" fill="#1F2F52"/>
<ellipse cx="102.095" cy="111.238" rx="12.6984" ry="12.6984" fill="#1F2F52"/>
<path d="M162.147 112.254H136.519C135.262 112.254 134.341 113.392 134.722 114.59C136.115 118.974 140.104 128 149.333 128C158.563 128 162.551 118.974 163.945 114.59C164.325 113.392 163.404 112.254 162.147 112.254Z" fill="#1F2F52"/>
</g>
<path d="M13.2064 106.667C18.7937 98.5397 13.3757 87.7037 7.61908 85.3333C1.5238 103.111 -0.507931 112.254 1.52381 128.508C13.2063 126.476 7.61908 114.794 13.2064 106.667Z" fill="#90C964"/>
</g>
<defs>
<clipPath id="clip0_8_15">
<rect width="256" height="256" fill="white"/>
</clipPath>
<clipPath id="clip1_8_15">
<rect width="120.889" height="29.4603" fill="white" transform="translate(89.3968 98.5397)"/>
</clipPath>
</defs>
</svg>
