<svg width="448" height="152" viewBox="0 0 448 152" fill="none" xmlns="http://www.w3.org/2000/svg">
<path d="M91.548 94.152C86.172 94.152 81.02 93.448 76.092 92.04C71.164 90.568 67.196 88.68 64.188 86.376L69.468 74.664C72.348 76.712 75.74 78.408 79.644 79.752C83.612 81.032 87.612 81.672 91.644 81.672C94.716 81.672 97.18 81.384 99.036 80.808C100.956 80.168 102.364 79.304 103.26 78.216C104.156 77.128 104.604 75.88 104.604 74.472C104.604 72.68 103.9 71.272 102.492 70.248C101.084 69.16 99.228 68.296 96.924 67.656C94.62 66.952 92.06 66.312 89.244 65.736C86.492 65.096 83.708 64.328 80.892 63.432C78.14 62.536 75.612 61.384 73.308 59.976C71.004 58.568 69.116 56.712 67.644 54.408C66.236 52.104 65.532 49.16 65.532 45.576C65.532 41.736 66.556 38.248 68.604 35.112C70.716 31.912 73.852 29.384 78.012 27.528C82.236 25.608 87.516 24.648 93.852 24.648C98.076 24.648 102.236 25.16 106.332 26.184C110.428 27.144 114.044 28.616 117.18 30.6L112.38 42.408C109.244 40.616 106.108 39.304 102.972 38.472C99.836 37.576 96.764 37.128 93.756 37.128C90.748 37.128 88.284 37.48 86.364 38.184C84.444 38.888 83.068 39.816 82.236 40.968C81.404 42.056 80.988 43.336 80.988 44.808C80.988 46.536 81.692 47.944 83.1 49.032C84.508 50.056 86.364 50.888 88.668 51.528C90.972 52.168 93.5 52.808 96.252 53.448C99.068 54.088 101.852 54.824 104.604 55.656C107.42 56.488 109.98 57.608 112.284 59.016C114.588 60.424 116.444 62.28 117.852 64.584C119.324 66.888 120.06 69.8 120.06 73.32C120.06 77.096 119.004 80.552 116.892 83.688C114.78 86.824 111.612 89.352 107.388 91.272C103.228 93.192 97.948 94.152 91.548 94.152ZM146.815 93L124.831 25.8H140.959L160.063 85.32H151.999L171.967 25.8H186.367L205.567 85.32H197.791L217.375 25.8H232.255L210.271 93H193.567L176.575 40.776H180.991L163.519 93H146.815ZM240.937 93V25.8H271.465C278.761 25.8 285.193 27.208 290.761 30.024C296.329 32.776 300.681 36.648 303.817 41.64C306.953 46.632 308.521 52.552 308.521 59.4C308.521 66.184 306.953 72.104 303.817 77.16C300.681 82.152 296.329 86.056 290.761 88.872C285.193 91.624 278.761 93 271.465 93H240.937ZM256.489 80.232H270.697C275.177 80.232 279.049 79.4 282.313 77.736C285.641 76.008 288.201 73.576 289.993 70.44C291.849 67.304 292.777 63.624 292.777 59.4C292.777 55.112 291.849 51.432 289.993 48.36C288.201 45.224 285.641 42.824 282.313 41.16C279.049 39.432 275.177 38.568 270.697 38.568H256.489V80.232ZM352.697 94.152C347.385 94.152 342.489 93.32 338.009 91.656C333.593 89.928 329.721 87.496 326.393 84.36C323.129 81.224 320.569 77.544 318.713 73.32C316.921 69.096 316.025 64.456 316.025 59.4C316.025 54.344 316.921 49.704 318.713 45.48C320.569 41.256 323.161 37.576 326.489 34.44C329.817 31.304 333.721 28.904 338.201 27.24C342.681 25.512 347.609 24.648 352.985 24.648C358.937 24.648 364.281 25.64 369.017 27.624C373.817 29.608 377.849 32.488 381.113 36.264L371.129 45.48C368.697 42.92 366.041 41.032 363.161 39.816C360.281 38.536 357.145 37.896 353.753 37.896C350.489 37.896 347.513 38.408 344.825 39.432C342.137 40.456 339.801 41.928 337.817 43.848C335.897 45.768 334.393 48.04 333.305 50.664C332.281 53.288 331.769 56.2 331.769 59.4C331.769 62.536 332.281 65.416 333.305 68.04C334.393 70.664 335.897 72.968 337.817 74.952C339.801 76.872 342.105 78.344 344.729 79.368C347.417 80.392 350.361 80.904 353.561 80.904C356.633 80.904 359.609 80.424 362.489 79.464C365.433 78.44 368.281 76.744 371.033 74.376L379.865 85.608C376.217 88.36 371.961 90.472 367.097 91.944C362.297 93.416 357.497 94.152 352.697 94.152ZM365.657 83.592V58.344H379.865V85.608L365.657 83.592Z" fill="white"/>
<path d="M7.512 146.288C6.168 146.288 4.88 146.112 3.648 145.76C2.416 145.392 1.424 144.92 0.672 144.344L1.992 141.416C2.712 141.928 3.56 142.352 4.536 142.688C5.528 143.008 6.528 143.168 7.536 143.168C8.304 143.168 8.92 143.096 9.384 142.952C9.864 142.792 10.216 142.576 10.44 142.304C10.664 142.032 10.776 141.72 10.776 141.368C10.776 140.92 10.6 140.568 10.248 140.312C9.896 140.04 9.432 139.824 8.856 139.664C8.28 139.488 7.64 139.328 6.936 139.184C6.248 139.024 5.552 138.832 4.848 138.608C4.16 138.384 3.528 138.096 2.952 137.744C2.376 137.392 1.904 136.928 1.536 136.352C1.184 135.776 1.008 135.04 1.008 134.144C1.008 133.184 1.264 132.312 1.776 131.528C2.304 130.728 3.088 130.096 4.128 129.632C5.184 129.152 6.504 128.912 8.088 128.912C9.144 128.912 10.184 129.04 11.208 129.296C12.232 129.536 13.136 129.904 13.92 130.4L12.72 133.352C11.936 132.904 11.152 132.576 10.368 132.368C9.584 132.144 8.816 132.032 8.064 132.032C7.312 132.032 6.696 132.12 6.216 132.296C5.736 132.472 5.392 132.704 5.184 132.992C4.976 133.264 4.872 133.584 4.872 133.952C4.872 134.384 5.048 134.736 5.4 135.008C5.752 135.264 6.216 135.472 6.792 135.632C7.368 135.792 8 135.952 8.688 136.112C9.392 136.272 10.088 136.456 10.776 136.664C11.48 136.872 12.12 137.152 12.696 137.504C13.272 137.856 13.736 138.32 14.088 138.896C14.456 139.472 14.64 140.2 14.64 141.08C14.64 142.024 14.376 142.888 13.848 143.672C13.32 144.456 12.528 145.088 11.472 145.568C10.432 146.048 9.112 146.288 7.512 146.288ZM22.4807 146.192C21.4087 146.192 20.4487 145.984 19.6007 145.568C18.7687 145.152 18.1207 144.52 17.6567 143.672C17.1927 142.808 16.9607 141.712 16.9607 140.384V133.088H20.7047V139.832C20.7047 140.904 20.9287 141.696 21.3767 142.208C21.8407 142.704 22.4887 142.952 23.3207 142.952C23.8967 142.952 24.4087 142.832 24.8567 142.592C25.3047 142.336 25.6567 141.952 25.9127 141.44C26.1687 140.912 26.2967 140.256 26.2967 139.472V133.088H30.0407V146H26.4887V142.448L27.1367 143.48C26.7047 144.376 26.0647 145.056 25.2167 145.52C24.3847 145.968 23.4727 146.192 22.4807 146.192ZM37.8533 146.192C36.7493 146.192 35.6853 146.064 34.6613 145.808C33.6533 145.536 32.8533 145.2 32.2613 144.8L33.5093 142.112C34.1013 142.48 34.7973 142.784 35.5973 143.024C36.4133 143.248 37.2133 143.36 37.9973 143.36C38.8613 143.36 39.4693 143.256 39.8213 143.048C40.1893 142.84 40.3733 142.552 40.3733 142.184C40.3733 141.88 40.2293 141.656 39.9413 141.512C39.6693 141.352 39.3013 141.232 38.8372 141.152C38.3733 141.072 37.8613 140.992 37.3013 140.912C36.7573 140.832 36.2053 140.728 35.6453 140.6C35.0853 140.456 34.5733 140.248 34.1093 139.976C33.6453 139.704 33.2693 139.336 32.9813 138.872C32.7093 138.408 32.5732 137.808 32.5732 137.072C32.5732 136.256 32.8053 135.536 33.2693 134.912C33.7493 134.288 34.4373 133.8 35.3333 133.448C36.2293 133.08 37.3013 132.896 38.5493 132.896C39.4293 132.896 40.3253 132.992 41.2373 133.184C42.1493 133.376 42.9093 133.656 43.5173 134.024L42.2693 136.688C41.6453 136.32 41.0133 136.072 40.3733 135.944C39.7493 135.8 39.1413 135.728 38.5493 135.728C37.7173 135.728 37.1093 135.84 36.7253 136.064C36.3413 136.288 36.1493 136.576 36.1493 136.928C36.1493 137.248 36.2853 137.488 36.5573 137.648C36.8453 137.808 37.2213 137.936 37.6853 138.032C38.1493 138.128 38.6533 138.216 39.1973 138.296C39.7573 138.36 40.3173 138.464 40.8773 138.608C41.4373 138.752 41.9413 138.96 42.3893 139.232C42.8533 139.488 43.2293 139.848 43.5173 140.312C43.8053 140.76 43.9493 141.352 43.9493 142.088C43.9493 142.888 43.7093 143.6 43.2293 144.224C42.7493 144.832 42.0533 145.312 41.1413 145.664C40.2453 146.016 39.1493 146.192 37.8533 146.192ZM51.5393 146.192C50.0193 146.192 48.8353 145.808 47.9873 145.04C47.1393 144.256 46.7153 143.096 46.7153 141.56V130.232H50.4593V141.512C50.4593 142.056 50.6033 142.48 50.8913 142.784C51.1793 143.072 51.5713 143.216 52.0673 143.216C52.6593 143.216 53.1633 143.056 53.5793 142.736L54.5873 145.376C54.2033 145.648 53.7393 145.856 53.1953 146C52.6673 146.128 52.1153 146.192 51.5393 146.192ZM44.7233 136.256V133.376H53.6753V136.256H44.7233ZM64.6089 146V143.48L64.3689 142.928V138.416C64.3689 137.616 64.1209 136.992 63.6249 136.544C63.1449 136.096 62.4009 135.872 61.3929 135.872C60.7049 135.872 60.0249 135.984 59.3529 136.208C58.6969 136.416 58.1369 136.704 57.6729 137.072L56.3289 134.456C57.0329 133.96 57.8809 133.576 58.8729 133.304C59.8649 133.032 60.8729 132.896 61.8969 132.896C63.8649 132.896 65.3929 133.36 66.4809 134.288C67.5689 135.216 68.1129 136.664 68.1129 138.632V146H64.6089ZM60.6729 146.192C59.6649 146.192 58.8009 146.024 58.0809 145.688C57.3609 145.336 56.8089 144.864 56.4249 144.272C56.0409 143.68 55.8489 143.016 55.8489 142.28C55.8489 141.512 56.0329 140.84 56.4009 140.264C56.7849 139.688 57.3849 139.24 58.2009 138.92C59.0169 138.584 60.0809 138.416 61.3929 138.416H64.8249V140.6H61.8009C60.9209 140.6 60.3129 140.744 59.9769 141.032C59.6569 141.32 59.4969 141.68 59.4969 142.112C59.4969 142.592 59.6809 142.976 60.0489 143.264C60.4329 143.536 60.9529 143.672 61.6089 143.672C62.2329 143.672 62.7929 143.528 63.2889 143.24C63.7849 142.936 64.1449 142.496 64.3689 141.92L64.9449 143.648C64.6729 144.48 64.1769 145.112 63.4569 145.544C62.7369 145.976 61.8089 146.192 60.6729 146.192ZM71.5014 146V133.088H75.2454V146H71.5014ZM73.3734 131.288C72.6854 131.288 72.1254 131.088 71.6934 130.688C71.2614 130.288 71.0454 129.792 71.0454 129.2C71.0454 128.608 71.2614 128.112 71.6934 127.712C72.1254 127.312 72.6854 127.112 73.3734 127.112C74.0614 127.112 74.6214 127.304 75.0534 127.688C75.4854 128.056 75.7014 128.536 75.7014 129.128C75.7014 129.752 75.4854 130.272 75.0534 130.688C74.6374 131.088 74.0774 131.288 73.3734 131.288ZM86.5682 132.896C87.5922 132.896 88.5042 133.104 89.3042 133.52C90.1202 133.92 90.7602 134.544 91.2242 135.392C91.6882 136.224 91.9202 137.296 91.9202 138.608V146H88.1762V139.184C88.1762 138.144 87.9442 137.376 87.4802 136.88C87.0322 136.384 86.3922 136.136 85.5602 136.136C84.9682 136.136 84.4322 136.264 83.9522 136.52C83.4882 136.76 83.1202 137.136 82.8482 137.648C82.5922 138.16 82.4642 138.816 82.4642 139.616V146H78.7202V133.088H82.2962V136.664L81.6242 135.584C82.0882 134.72 82.7522 134.056 83.6162 133.592C84.4802 133.128 85.4642 132.896 86.5682 132.896ZM103.234 146V143.48L102.994 142.928V138.416C102.994 137.616 102.746 136.992 102.25 136.544C101.77 136.096 101.026 135.872 100.018 135.872C99.3299 135.872 98.6499 135.984 97.9779 136.208C97.3219 136.416 96.7619 136.704 96.2979 137.072L94.9539 134.456C95.6579 133.96 96.5059 133.576 97.4979 133.304C98.4899 133.032 99.4979 132.896 100.522 132.896C102.49 132.896 104.018 133.36 105.106 134.288C106.194 135.216 106.738 136.664 106.738 138.632V146H103.234ZM99.2979 146.192C98.2899 146.192 97.4259 146.024 96.7059 145.688C95.9859 145.336 95.4339 144.864 95.0499 144.272C94.6659 143.68 94.4739 143.016 94.4739 142.28C94.4739 141.512 94.6579 140.84 95.0259 140.264C95.4099 139.688 96.0099 139.24 96.8259 138.92C97.6419 138.584 98.7059 138.416 100.018 138.416H103.45V140.6H100.426C99.5459 140.6 98.9379 140.744 98.6019 141.032C98.2819 141.32 98.1219 141.68 98.1219 142.112C98.1219 142.592 98.3059 142.976 98.6739 143.264C99.0579 143.536 99.5779 143.672 100.234 143.672C100.858 143.672 101.418 143.528 101.914 143.24C102.41 142.936 102.77 142.496 102.994 141.92L103.57 143.648C103.298 144.48 102.802 145.112 102.082 145.544C101.362 145.976 100.434 146.192 99.2979 146.192ZM117.758 146.192C116.622 146.192 115.646 145.952 114.83 145.472C114.014 144.992 113.39 144.264 112.958 143.288C112.526 142.296 112.31 141.048 112.31 139.544C112.31 138.024 112.534 136.776 112.982 135.8C113.446 134.824 114.086 134.096 114.902 133.616C115.718 133.136 116.67 132.896 117.758 132.896C118.974 132.896 120.062 133.168 121.022 133.712C121.998 134.256 122.766 135.024 123.326 136.016C123.902 137.008 124.19 138.184 124.19 139.544C124.19 140.888 123.902 142.056 123.326 143.048C122.766 144.04 121.998 144.816 121.022 145.376C120.062 145.92 118.974 146.192 117.758 146.192ZM110.126 146V128.192H113.87V135.704L113.63 139.52L113.702 143.36V146H110.126ZM117.11 143.12C117.734 143.12 118.286 142.976 118.766 142.688C119.262 142.4 119.654 141.992 119.942 141.464C120.246 140.92 120.398 140.28 120.398 139.544C120.398 138.792 120.246 138.152 119.942 137.624C119.654 137.096 119.262 136.688 118.766 136.4C118.286 136.112 117.734 135.968 117.11 135.968C116.486 135.968 115.926 136.112 115.43 136.4C114.934 136.688 114.542 137.096 114.254 137.624C113.966 138.152 113.822 138.792 113.822 139.544C113.822 140.28 113.966 140.92 114.254 141.464C114.542 141.992 114.934 142.4 115.43 142.688C115.926 142.976 116.486 143.12 117.11 143.12ZM126.697 146V128.192H130.441V146H126.697ZM140.324 146.192C138.852 146.192 137.556 145.904 136.436 145.328C135.332 144.752 134.476 143.968 133.868 142.976C133.26 141.968 132.956 140.824 132.956 139.544C132.956 138.248 133.252 137.104 133.844 136.112C134.452 135.104 135.276 134.32 136.316 133.76C137.356 133.184 138.532 132.896 139.844 132.896C141.108 132.896 142.244 133.168 143.252 133.712C144.276 134.24 145.084 135.008 145.676 136.016C146.268 137.008 146.564 138.2 146.564 139.592C146.564 139.736 146.556 139.904 146.54 140.096C146.524 140.272 146.508 140.44 146.492 140.6H136.004V138.416H144.523L143.084 139.064C143.084 138.392 142.948 137.808 142.676 137.312C142.404 136.816 142.028 136.432 141.548 136.16C141.068 135.872 140.508 135.728 139.868 135.728C139.228 135.728 138.66 135.872 138.164 136.16C137.684 136.432 137.308 136.824 137.036 137.336C136.764 137.832 136.628 138.424 136.628 139.112V139.688C136.628 140.392 136.78 141.016 137.084 141.56C137.404 142.088 137.844 142.496 138.404 142.784C138.98 143.056 139.652 143.192 140.42 143.192C141.108 143.192 141.708 143.088 142.22 142.88C142.748 142.672 143.228 142.36 143.66 141.944L145.652 144.104C145.06 144.776 144.316 145.296 143.42 145.664C142.524 146.016 141.492 146.192 140.324 146.192ZM160.149 146L154.653 129.2H158.685L163.461 144.08H161.445L166.437 129.2H170.037L174.837 144.08H172.893L177.789 129.2H181.509L176.013 146H171.837L167.589 132.944H168.693L164.325 146H160.149ZM188.863 146.192C187.391 146.192 186.095 145.904 184.975 145.328C183.871 144.752 183.015 143.968 182.407 142.976C181.799 141.968 181.495 140.824 181.495 139.544C181.495 138.248 181.791 137.104 182.383 136.112C182.991 135.104 183.815 134.32 184.855 133.76C185.895 133.184 187.071 132.896 188.383 132.896C189.647 132.896 190.783 133.168 191.791 133.712C192.815 134.24 193.623 135.008 194.215 136.016C194.807 137.008 195.103 138.2 195.103 139.592C195.103 139.736 195.095 139.904 195.079 140.096C195.063 140.272 195.047 140.44 195.031 140.6H184.543V138.416H193.063L191.623 139.064C191.623 138.392 191.487 137.808 191.215 137.312C190.943 136.816 190.567 136.432 190.087 136.16C189.607 135.872 189.047 135.728 188.407 135.728C187.767 135.728 187.199 135.872 186.703 136.16C186.223 136.432 185.847 136.824 185.575 137.336C185.303 137.832 185.167 138.424 185.167 139.112V139.688C185.167 140.392 185.319 141.016 185.623 141.56C185.943 142.088 186.383 142.496 186.943 142.784C187.519 143.056 188.191 143.192 188.959 143.192C189.647 143.192 190.247 143.088 190.759 142.88C191.287 142.672 191.767 142.36 192.199 141.944L194.191 144.104C193.599 144.776 192.855 145.296 191.959 145.664C191.063 146.016 190.031 146.192 188.863 146.192ZM205.227 146.192C204.091 146.192 203.115 145.952 202.299 145.472C201.483 144.992 200.859 144.264 200.427 143.288C199.995 142.296 199.779 141.048 199.779 139.544C199.779 138.024 200.003 136.776 200.451 135.8C200.915 134.824 201.555 134.096 202.371 133.616C203.187 133.136 204.139 132.896 205.227 132.896C206.443 132.896 207.531 133.168 208.491 133.712C209.467 134.256 210.235 135.024 210.795 136.016C211.371 137.008 211.659 138.184 211.659 139.544C211.659 140.888 211.371 142.056 210.795 143.048C210.235 144.04 209.467 144.816 208.491 145.376C207.531 145.92 206.443 146.192 205.227 146.192ZM197.595 146V128.192H201.339V135.704L201.099 139.52L201.171 143.36V146H197.595ZM204.579 143.12C205.203 143.12 205.755 142.976 206.235 142.688C206.731 142.4 207.123 141.992 207.411 141.464C207.715 140.92 207.867 140.28 207.867 139.544C207.867 138.792 207.715 138.152 207.411 137.624C207.123 137.096 206.731 136.688 206.235 136.4C205.755 136.112 205.203 135.968 204.579 135.968C203.955 135.968 203.395 136.112 202.899 136.4C202.403 136.688 202.011 137.096 201.723 137.624C201.435 138.152 201.291 138.792 201.291 139.544C201.291 140.28 201.435 140.92 201.723 141.464C202.011 141.992 202.403 142.4 202.899 142.688C203.395 142.976 203.955 143.12 204.579 143.12ZM221.226 146V129.2H228.858C230.682 129.2 232.29 129.552 233.682 130.256C235.074 130.944 236.162 131.912 236.946 133.16C237.73 134.408 238.122 135.888 238.122 137.6C238.122 139.296 237.73 140.776 236.946 142.04C236.162 143.288 235.074 144.264 233.682 144.968C232.29 145.656 230.682 146 228.858 146H221.226ZM225.114 142.808H228.666C229.786 142.808 230.754 142.6 231.57 142.184C232.402 141.752 233.042 141.144 233.49 140.36C233.954 139.576 234.186 138.656 234.186 137.6C234.186 136.528 233.954 135.608 233.49 134.84C233.042 134.056 232.402 133.456 231.57 133.04C230.754 132.608 229.786 132.392 228.666 132.392H225.114V142.808ZM247.199 146.192C245.727 146.192 244.431 145.904 243.311 145.328C242.207 144.752 241.351 143.968 240.743 142.976C240.135 141.968 239.831 140.824 239.831 139.544C239.831 138.248 240.127 137.104 240.719 136.112C241.327 135.104 242.151 134.32 243.191 133.76C244.231 133.184 245.407 132.896 246.719 132.896C247.983 132.896 249.119 133.168 250.127 133.712C251.151 134.24 251.959 135.008 252.551 136.016C253.143 137.008 253.439 138.2 253.439 139.592C253.439 139.736 253.431 139.904 253.415 140.096C253.399 140.272 253.383 140.44 253.367 140.6H242.879V138.416H251.398L249.959 139.064C249.959 138.392 249.823 137.808 249.551 137.312C249.279 136.816 248.903 136.432 248.423 136.16C247.943 135.872 247.383 135.728 246.743 135.728C246.103 135.728 245.535 135.872 245.039 136.16C244.559 136.432 244.183 136.824 243.911 137.336C243.639 137.832 243.503 138.424 243.503 139.112V139.688C243.503 140.392 243.655 141.016 243.959 141.56C244.279 142.088 244.719 142.496 245.279 142.784C245.855 143.056 246.527 143.192 247.295 143.192C247.983 143.192 248.583 143.088 249.095 142.88C249.623 142.672 250.103 142.36 250.535 141.944L252.527 144.104C251.935 144.776 251.191 145.296 250.295 145.664C249.399 146.016 248.367 146.192 247.199 146.192ZM260.275 146.192C259.171 146.192 258.107 146.064 257.083 145.808C256.075 145.536 255.275 145.2 254.683 144.8L255.931 142.112C256.523 142.48 257.219 142.784 258.019 143.024C258.835 143.248 259.635 143.36 260.419 143.36C261.283 143.36 261.891 143.256 262.243 143.048C262.611 142.84 262.795 142.552 262.795 142.184C262.795 141.88 262.651 141.656 262.363 141.512C262.091 141.352 261.723 141.232 261.259 141.152C260.795 141.072 260.283 140.992 259.723 140.912C259.179 140.832 258.627 140.728 258.067 140.6C257.507 140.456 256.995 140.248 256.531 139.976C256.067 139.704 255.691 139.336 255.403 138.872C255.131 138.408 254.995 137.808 254.995 137.072C254.995 136.256 255.227 135.536 255.691 134.912C256.171 134.288 256.859 133.8 257.755 133.448C258.651 133.08 259.723 132.896 260.971 132.896C261.851 132.896 262.747 132.992 263.659 133.184C264.571 133.376 265.331 133.656 265.939 134.024L264.691 136.688C264.067 136.32 263.435 136.072 262.795 135.944C262.171 135.8 261.563 135.728 260.971 135.728C260.139 135.728 259.531 135.84 259.147 136.064C258.763 136.288 258.571 136.576 258.571 136.928C258.571 137.248 258.707 137.488 258.979 137.648C259.267 137.808 259.643 137.936 260.107 138.032C260.571 138.128 261.075 138.216 261.619 138.296C262.179 138.36 262.739 138.464 263.299 138.608C263.859 138.752 264.363 138.96 264.811 139.232C265.275 139.488 265.651 139.848 265.939 140.312C266.227 140.76 266.371 141.352 266.371 142.088C266.371 142.888 266.131 143.6 265.651 144.224C265.171 144.832 264.475 145.312 263.563 145.664C262.667 146.016 261.571 146.192 260.275 146.192ZM268.681 146V133.088H272.425V146H268.681ZM270.553 131.288C269.865 131.288 269.305 131.088 268.873 130.688C268.441 130.288 268.225 129.792 268.225 129.2C268.225 128.608 268.441 128.112 268.873 127.712C269.305 127.312 269.865 127.112 270.553 127.112C271.241 127.112 271.801 127.304 272.233 127.688C272.665 128.056 272.881 128.536 272.881 129.128C272.881 129.752 272.665 130.272 272.233 130.688C271.817 131.088 271.257 131.288 270.553 131.288ZM281.972 150.848C280.756 150.848 279.58 150.696 278.444 150.392C277.324 150.104 276.388 149.664 275.636 149.072L277.124 146.384C277.668 146.832 278.356 147.184 279.188 147.44C280.036 147.712 280.868 147.848 281.684 147.848C283.012 147.848 283.972 147.552 284.564 146.96C285.172 146.368 285.476 145.488 285.476 144.32V142.376L285.716 139.136L285.668 135.872V133.088H289.22V143.84C289.22 146.24 288.596 148.008 287.348 149.144C286.1 150.28 284.308 150.848 281.972 150.848ZM281.396 145.376C280.196 145.376 279.108 145.12 278.132 144.608C277.172 144.08 276.396 143.352 275.804 142.424C275.228 141.48 274.94 140.384 274.94 139.136C274.94 137.872 275.228 136.776 275.804 135.848C276.396 134.904 277.172 134.176 278.132 133.664C279.108 133.152 280.196 132.896 281.396 132.896C282.484 132.896 283.444 133.12 284.276 133.568C285.108 134 285.756 134.68 286.22 135.608C286.684 136.52 286.916 137.696 286.916 139.136C286.916 140.56 286.684 141.736 286.22 142.664C285.756 143.576 285.108 144.256 284.276 144.704C283.444 145.152 282.484 145.376 281.396 145.376ZM282.14 142.304C282.796 142.304 283.38 142.176 283.892 141.92C284.404 141.648 284.804 141.272 285.092 140.792C285.38 140.312 285.524 139.76 285.524 139.136C285.524 138.496 285.38 137.944 285.092 137.48C284.804 137 284.404 136.632 283.892 136.376C283.38 136.104 282.796 135.968 282.14 135.968C281.484 135.968 280.9 136.104 280.388 136.376C279.876 136.632 279.468 137 279.164 137.48C278.876 137.944 278.732 138.496 278.732 139.136C278.732 139.76 278.876 140.312 279.164 140.792C279.468 141.272 279.876 141.648 280.388 141.92C280.9 142.176 281.484 142.304 282.14 142.304ZM300.553 132.896C301.577 132.896 302.489 133.104 303.289 133.52C304.105 133.92 304.745 134.544 305.209 135.392C305.673 136.224 305.905 137.296 305.905 138.608V146H302.161V139.184C302.161 138.144 301.929 137.376 301.465 136.88C301.017 136.384 300.377 136.136 299.545 136.136C298.953 136.136 298.417 136.264 297.937 136.52C297.473 136.76 297.105 137.136 296.833 137.648C296.577 138.16 296.449 138.816 296.449 139.616V146H292.705V133.088H296.281V136.664L295.609 135.584C296.073 134.72 296.737 134.056 297.601 133.592C298.465 133.128 299.449 132.896 300.553 132.896ZM324.471 146.288C323.143 146.288 321.919 146.08 320.799 145.664C319.695 145.232 318.727 144.624 317.895 143.84C317.079 143.056 316.439 142.136 315.975 141.08C315.527 140.024 315.303 138.864 315.303 137.6C315.303 136.336 315.527 135.176 315.975 134.12C316.439 133.064 317.087 132.144 317.919 131.36C318.751 130.576 319.727 129.976 320.847 129.56C321.967 129.128 323.199 128.912 324.543 128.912C326.031 128.912 327.367 129.16 328.551 129.656C329.751 130.152 330.759 130.872 331.575 131.816L329.079 134.12C328.471 133.48 327.807 133.008 327.087 132.704C326.367 132.384 325.583 132.224 324.735 132.224C323.919 132.224 323.175 132.352 322.503 132.608C321.831 132.864 321.247 133.232 320.751 133.712C320.271 134.192 319.895 134.76 319.623 135.416C319.367 136.072 319.239 136.8 319.239 137.6C319.239 138.384 319.367 139.104 319.623 139.76C319.895 140.416 320.271 140.992 320.751 141.488C321.247 141.968 321.823 142.336 322.479 142.592C323.151 142.848 323.887 142.976 324.687 142.976C325.455 142.976 326.199 142.856 326.919 142.616C327.655 142.36 328.367 141.936 329.055 141.344L331.263 144.152C330.351 144.84 329.287 145.368 328.071 145.736C326.871 146.104 325.671 146.288 324.471 146.288ZM327.711 143.648V137.336H331.263V144.152L327.711 143.648ZM340.059 146.192C338.987 146.192 338.027 145.984 337.179 145.568C336.347 145.152 335.699 144.52 335.235 143.672C334.771 142.808 334.539 141.712 334.539 140.384V133.088H338.283V139.832C338.283 140.904 338.507 141.696 338.955 142.208C339.419 142.704 340.067 142.952 340.899 142.952C341.475 142.952 341.987 142.832 342.435 142.592C342.883 142.336 343.235 141.952 343.491 141.44C343.747 140.912 343.875 140.256 343.875 139.472V133.088H347.619V146H344.067V142.448L344.715 143.48C344.283 144.376 343.643 145.056 342.795 145.52C341.963 145.968 341.051 146.192 340.059 146.192ZM351.087 146V133.088H354.831V146H351.087ZM352.959 131.288C352.271 131.288 351.711 131.088 351.279 130.688C350.847 130.288 350.631 129.792 350.631 129.2C350.631 128.608 350.847 128.112 351.279 127.712C351.711 127.312 352.271 127.112 352.959 127.112C353.647 127.112 354.207 127.304 354.639 127.688C355.071 128.056 355.287 128.536 355.287 129.128C355.287 129.752 355.071 130.272 354.639 130.688C354.223 131.088 353.663 131.288 352.959 131.288ZM363.85 146.192C362.634 146.192 361.538 145.92 360.562 145.376C359.586 144.816 358.81 144.04 358.234 143.048C357.674 142.056 357.394 140.888 357.394 139.544C357.394 138.184 357.674 137.008 358.234 136.016C358.81 135.024 359.586 134.256 360.562 133.712C361.538 133.168 362.634 132.896 363.85 132.896C364.938 132.896 365.89 133.136 366.706 133.616C367.522 134.096 368.154 134.824 368.602 135.8C369.05 136.776 369.274 138.024 369.274 139.544C369.274 141.048 369.058 142.296 368.626 143.288C368.194 144.264 367.57 144.992 366.754 145.472C365.954 145.952 364.986 146.192 363.85 146.192ZM364.498 143.12C365.106 143.12 365.658 142.976 366.154 142.688C366.65 142.4 367.042 141.992 367.33 141.464C367.634 140.92 367.786 140.28 367.786 139.544C367.786 138.792 367.634 138.152 367.33 137.624C367.042 137.096 366.65 136.688 366.154 136.4C365.658 136.112 365.106 135.968 364.498 135.968C363.874 135.968 363.314 136.112 362.818 136.4C362.322 136.688 361.922 137.096 361.618 137.624C361.33 138.152 361.186 138.792 361.186 139.544C361.186 140.28 361.33 140.92 361.618 141.464C361.922 141.992 362.322 142.4 362.818 142.688C363.314 142.976 363.874 143.12 364.498 143.12ZM367.882 146V143.36L367.954 139.52L367.714 135.704V128.192H371.458V146H367.882ZM381.331 146.192C379.859 146.192 378.563 145.904 377.443 145.328C376.339 144.752 375.483 143.968 374.875 142.976C374.267 141.968 373.963 140.824 373.963 139.544C373.963 138.248 374.259 137.104 374.851 136.112C375.459 135.104 376.283 134.32 377.323 133.76C378.363 133.184 379.539 132.896 380.851 132.896C382.115 132.896 383.251 133.168 384.259 133.712C385.283 134.24 386.091 135.008 386.683 136.016C387.275 137.008 387.571 138.2 387.571 139.592C387.571 139.736 387.563 139.904 387.547 140.096C387.531 140.272 387.515 140.44 387.499 140.6H377.011V138.416H385.531L384.091 139.064C384.091 138.392 383.955 137.808 383.683 137.312C383.411 136.816 383.035 136.432 382.555 136.16C382.075 135.872 381.515 135.728 380.875 135.728C380.235 135.728 379.667 135.872 379.171 136.16C378.691 136.432 378.315 136.824 378.043 137.336C377.771 137.832 377.635 138.424 377.635 139.112V139.688C377.635 140.392 377.787 141.016 378.091 141.56C378.411 142.088 378.851 142.496 379.411 142.784C379.987 143.056 380.659 143.192 381.427 143.192C382.115 143.192 382.715 143.088 383.227 142.88C383.755 142.672 384.235 142.36 384.667 141.944L386.659 144.104C386.067 144.776 385.323 145.296 384.427 145.664C383.531 146.016 382.499 146.192 381.331 146.192ZM390.064 146V128.192H393.808V146H390.064ZM397.283 146V133.088H401.027V146H397.283ZM399.155 131.288C398.467 131.288 397.907 131.088 397.475 130.688C397.043 130.288 396.827 129.792 396.827 129.2C396.827 128.608 397.043 128.112 397.475 127.712C397.907 127.312 398.467 127.112 399.155 127.112C399.843 127.112 400.403 127.304 400.835 127.688C401.267 128.056 401.483 128.536 401.483 129.128C401.483 129.752 401.267 130.272 400.835 130.688C400.419 131.088 399.859 131.288 399.155 131.288ZM412.349 132.896C413.373 132.896 414.285 133.104 415.085 133.52C415.901 133.92 416.541 134.544 417.005 135.392C417.469 136.224 417.701 137.296 417.701 138.608V146H413.957V139.184C413.957 138.144 413.725 137.376 413.261 136.88C412.813 136.384 412.173 136.136 411.341 136.136C410.749 136.136 410.213 136.264 409.733 136.52C409.269 136.76 408.901 137.136 408.629 137.648C408.373 138.16 408.245 138.816 408.245 139.616V146H404.501V133.088H408.077V136.664L407.405 135.584C407.869 134.72 408.533 134.056 409.397 133.592C410.261 133.128 411.245 132.896 412.349 132.896ZM427.597 146.192C426.125 146.192 424.829 145.904 423.709 145.328C422.605 144.752 421.749 143.968 421.141 142.976C420.533 141.968 420.229 140.824 420.229 139.544C420.229 138.248 420.525 137.104 421.117 136.112C421.725 135.104 422.549 134.32 423.589 133.76C424.629 133.184 425.805 132.896 427.117 132.896C428.381 132.896 429.517 133.168 430.525 133.712C431.549 134.24 432.357 135.008 432.949 136.016C433.541 137.008 433.837 138.2 433.837 139.592C433.837 139.736 433.829 139.904 433.813 140.096C433.797 140.272 433.781 140.44 433.765 140.6H423.277V138.416H431.797L430.357 139.064C430.357 138.392 430.221 137.808 429.949 137.312C429.677 136.816 429.301 136.432 428.821 136.16C428.341 135.872 427.781 135.728 427.141 135.728C426.501 135.728 425.933 135.872 425.437 136.16C424.957 136.432 424.581 136.824 424.309 137.336C424.037 137.832 423.901 138.424 423.901 139.112V139.688C423.901 140.392 424.053 141.016 424.357 141.56C424.677 142.088 425.117 142.496 425.677 142.784C426.253 143.056 426.925 143.192 427.693 143.192C428.381 143.192 428.981 143.088 429.493 142.88C430.021 142.672 430.501 142.36 430.933 141.944L432.925 144.104C432.333 144.776 431.589 145.296 430.693 145.664C429.797 146.016 428.765 146.192 427.597 146.192ZM440.674 146.192C439.57 146.192 438.506 146.064 437.482 145.808C436.474 145.536 435.674 145.2 435.082 144.8L436.33 142.112C436.922 142.48 437.618 142.784 438.418 143.024C439.234 143.248 440.034 143.36 440.818 143.36C441.682 143.36 442.29 143.256 442.642 143.048C443.01 142.84 443.194 142.552 443.194 142.184C443.194 141.88 443.05 141.656 442.762 141.512C442.49 141.352 442.122 141.232 441.658 141.152C441.194 141.072 440.682 140.992 440.122 140.912C439.578 140.832 439.026 140.728 438.466 140.6C437.906 140.456 437.394 140.248 436.93 139.976C436.466 139.704 436.09 139.336 435.802 138.872C435.53 138.408 435.394 137.808 435.394 137.072C435.394 136.256 435.626 135.536 436.09 134.912C436.57 134.288 437.258 133.8 438.154 133.448C439.05 133.08 440.122 132.896 441.37 132.896C442.25 132.896 443.146 132.992 444.058 133.184C444.97 133.376 445.73 133.656 446.338 134.024L445.09 136.688C444.466 136.32 443.834 136.072 443.194 135.944C442.57 135.8 441.962 135.728 441.37 135.728C440.538 135.728 439.93 135.84 439.546 136.064C439.162 136.288 438.97 136.576 438.97 136.928C438.97 137.248 439.106 137.488 439.378 137.648C439.666 137.808 440.042 137.936 440.506 138.032C440.97 138.128 441.474 138.216 442.018 138.296C442.578 138.36 443.138 138.464 443.698 138.608C444.258 138.752 444.762 138.96 445.21 139.232C445.674 139.488 446.05 139.848 446.338 140.312C446.626 140.76 446.77 141.352 446.77 142.088C446.77 142.888 446.53 143.6 446.05 144.224C445.57 144.832 444.874 145.312 443.962 145.664C443.066 146.016 441.97 146.192 440.674 146.192Z" fill="white"/>
</svg>
